name C:\Users\u0101727\Documents\MyRepositories\upper-imu-dc\OpenSim\subject0\MA\ResultsMA\grid_4nodes_9dim\angles_16.mot
datacolumns 10
datarows 52
range 1625.01000000 1625.52000000
endheader 
time	clav_prot	clav_elev	scapula_abduction	scapula_elevation	scapula_upward_rot	scapula_winging	plane_elv	shoulder_elv	axial_rot	
       1625.01000000	        -50.00000000	          0.00000000	        -40.00000000	         10.00000000	         60.00000000	          0.00000000	         90.00000000	         26.66666667	         30.00000000	
       1625.02000000	        -38.33333333	          0.00000000	        -40.00000000	         10.00000000	         60.00000000	          0.00000000	         90.00000000	         26.66666667	         30.00000000	
       1625.03000000	        -26.66666667	          0.00000000	        -40.00000000	         10.00000000	         60.00000000	          0.00000000	         90.00000000	         26.66666667	         30.00000000	
       1625.04000000	        -15.00000000	          0.00000000	        -40.00000000	         10.00000000	         60.00000000	          0.00000000	         90.00000000	         26.66666667	         30.00000000	
       1625.05000000	        -50.00000000	         10.00000000	        -40.00000000	         10.00000000	         60.00000000	          0.00000000	         90.00000000	         26.66666667	         30.00000000	
       1625.06000000	        -38.33333333	         10.00000000	        -40.00000000	         10.00000000	         60.00000000	          0.00000000	         90.00000000	         26.66666667	         30.00000000	
       1625.07000000	        -26.66666667	         10.00000000	        -40.00000000	         10.00000000	         60.00000000	          0.00000000	         90.00000000	         26.66666667	         30.00000000	
       1625.08000000	        -15.00000000	         10.00000000	        -40.00000000	         10.00000000	         60.00000000	          0.00000000	         90.00000000	         26.66666667	         30.00000000	
       1625.09000000	        -50.00000000	         20.00000000	        -40.00000000	         10.00000000	         60.00000000	          0.00000000	         90.00000000	         26.66666667	         30.00000000	
       1625.10000000	        -38.33333333	         20.00000000	        -40.00000000	         10.00000000	         60.00000000	          0.00000000	         90.00000000	         26.66666667	         30.00000000	
       1625.11000000	        -26.66666667	         20.00000000	        -40.00000000	         10.00000000	         60.00000000	          0.00000000	         90.00000000	         26.66666667	         30.00000000	
       1625.12000000	        -15.00000000	         20.00000000	        -40.00000000	         10.00000000	         60.00000000	          0.00000000	         90.00000000	         26.66666667	         30.00000000	
       1625.13000000	        -50.00000000	        -10.00000000	        -21.66666667	         10.00000000	         60.00000000	          0.00000000	         90.00000000	         26.66666667	         30.00000000	
       1625.14000000	        -38.33333333	        -10.00000000	        -21.66666667	         10.00000000	         60.00000000	          0.00000000	         90.00000000	         26.66666667	         30.00000000	
       1625.15000000	        -26.66666667	        -10.00000000	        -21.66666667	         10.00000000	         60.00000000	          0.00000000	         90.00000000	         26.66666667	         30.00000000	
       1625.16000000	        -15.00000000	        -10.00000000	        -21.66666667	         10.00000000	         60.00000000	          0.00000000	         90.00000000	         26.66666667	         30.00000000	
       1625.17000000	        -50.00000000	          0.00000000	        -21.66666667	         10.00000000	         60.00000000	          0.00000000	         90.00000000	         26.66666667	         30.00000000	
       1625.18000000	        -38.33333333	          0.00000000	        -21.66666667	         10.00000000	         60.00000000	          0.00000000	         90.00000000	         26.66666667	         30.00000000	
       1625.19000000	        -26.66666667	          0.00000000	        -21.66666667	         10.00000000	         60.00000000	          0.00000000	         90.00000000	         26.66666667	         30.00000000	
       1625.20000000	        -15.00000000	          0.00000000	        -21.66666667	         10.00000000	         60.00000000	          0.00000000	         90.00000000	         26.66666667	         30.00000000	
       1625.21000000	        -50.00000000	         10.00000000	        -21.66666667	         10.00000000	         60.00000000	          0.00000000	         90.00000000	         26.66666667	         30.00000000	
       1625.22000000	        -38.33333333	         10.00000000	        -21.66666667	         10.00000000	         60.00000000	          0.00000000	         90.00000000	         26.66666667	         30.00000000	
       1625.23000000	        -26.66666667	         10.00000000	        -21.66666667	         10.00000000	         60.00000000	          0.00000000	         90.00000000	         26.66666667	         30.00000000	
       1625.24000000	        -15.00000000	         10.00000000	        -21.66666667	         10.00000000	         60.00000000	          0.00000000	         90.00000000	         26.66666667	         30.00000000	
       1625.25000000	        -50.00000000	         20.00000000	        -21.66666667	         10.00000000	         60.00000000	          0.00000000	         90.00000000	         26.66666667	         30.00000000	
       1625.26000000	        -38.33333333	         20.00000000	        -21.66666667	         10.00000000	         60.00000000	          0.00000000	         90.00000000	         26.66666667	         30.00000000	
       1625.27000000	        -26.66666667	         20.00000000	        -21.66666667	         10.00000000	         60.00000000	          0.00000000	         90.00000000	         26.66666667	         30.00000000	
       1625.28000000	        -15.00000000	         20.00000000	        -21.66666667	         10.00000000	         60.00000000	          0.00000000	         90.00000000	         26.66666667	         30.00000000	
       1625.29000000	        -50.00000000	        -10.00000000	         -3.33333333	         10.00000000	         60.00000000	          0.00000000	         90.00000000	         26.66666667	         30.00000000	
       1625.30000000	        -38.33333333	        -10.00000000	         -3.33333333	         10.00000000	         60.00000000	          0.00000000	         90.00000000	         26.66666667	         30.00000000	
       1625.31000000	        -26.66666667	        -10.00000000	         -3.33333333	         10.00000000	         60.00000000	          0.00000000	         90.00000000	         26.66666667	         30.00000000	
       1625.32000000	        -15.00000000	        -10.00000000	         -3.33333333	         10.00000000	         60.00000000	          0.00000000	         90.00000000	         26.66666667	         30.00000000	
       1625.33000000	        -50.00000000	          0.00000000	         -3.33333333	         10.00000000	         60.00000000	          0.00000000	         90.00000000	         26.66666667	         30.00000000	
       1625.34000000	        -38.33333333	          0.00000000	         -3.33333333	         10.00000000	         60.00000000	          0.00000000	         90.00000000	         26.66666667	         30.00000000	
       1625.35000000	        -26.66666667	          0.00000000	         -3.33333333	         10.00000000	         60.00000000	          0.00000000	         90.00000000	         26.66666667	         30.00000000	
       1625.36000000	        -15.00000000	          0.00000000	         -3.33333333	         10.00000000	         60.00000000	          0.00000000	         90.00000000	         26.66666667	         30.00000000	
       1625.37000000	        -50.00000000	         10.00000000	         -3.33333333	         10.00000000	         60.00000000	          0.00000000	         90.00000000	         26.66666667	         30.00000000	
       1625.38000000	        -38.33333333	         10.00000000	         -3.33333333	         10.00000000	         60.00000000	          0.00000000	         90.00000000	         26.66666667	         30.00000000	
       1625.39000000	        -26.66666667	         10.00000000	         -3.33333333	         10.00000000	         60.00000000	          0.00000000	         90.00000000	         26.66666667	         30.00000000	
       1625.40000000	        -15.00000000	         10.00000000	         -3.33333333	         10.00000000	         60.00000000	          0.00000000	         90.00000000	         26.66666667	         30.00000000	
       1625.41000000	        -50.00000000	         20.00000000	         -3.33333333	         10.00000000	         60.00000000	          0.00000000	         90.00000000	         26.66666667	         30.00000000	
       1625.42000000	        -38.33333333	         20.00000000	         -3.33333333	         10.00000000	         60.00000000	          0.00000000	         90.00000000	         26.66666667	         30.00000000	
       1625.43000000	        -26.66666667	         20.00000000	         -3.33333333	         10.00000000	         60.00000000	          0.00000000	         90.00000000	         26.66666667	         30.00000000	
       1625.44000000	        -15.00000000	         20.00000000	         -3.33333333	         10.00000000	         60.00000000	          0.00000000	         90.00000000	         26.66666667	         30.00000000	
       1625.45000000	        -50.00000000	        -10.00000000	         15.00000000	         10.00000000	         60.00000000	          0.00000000	         90.00000000	         26.66666667	         30.00000000	
       1625.46000000	        -38.33333333	        -10.00000000	         15.00000000	         10.00000000	         60.00000000	          0.00000000	         90.00000000	         26.66666667	         30.00000000	
       1625.47000000	        -26.66666667	        -10.00000000	         15.00000000	         10.00000000	         60.00000000	          0.00000000	         90.00000000	         26.66666667	         30.00000000	
       1625.48000000	        -15.00000000	        -10.00000000	         15.00000000	         10.00000000	         60.00000000	          0.00000000	         90.00000000	         26.66666667	         30.00000000	
       1625.49000000	        -50.00000000	          0.00000000	         15.00000000	         10.00000000	         60.00000000	          0.00000000	         90.00000000	         26.66666667	         30.00000000	
       1625.50000000	        -38.33333333	          0.00000000	         15.00000000	         10.00000000	         60.00000000	          0.00000000	         90.00000000	         26.66666667	         30.00000000	
       1625.51000000	        -26.66666667	          0.00000000	         15.00000000	         10.00000000	         60.00000000	          0.00000000	         90.00000000	         26.66666667	         30.00000000	
       1625.52000000	        -15.00000000	          0.00000000	         15.00000000	         10.00000000	         60.00000000	          0.00000000	         90.00000000	         26.66666667	         30.00000000	
